<svg width="500" height="500" viewBox="0 0 500 500" fill="none" xmlns="http://www.w3.org/2000/svg">
<path d="M250 0C388.071 0 500 111.929 500 250C500 388.071 388.071 500 250 500C111.929 500 0 388.071 0 250C0 111.929 111.929 0 250 0ZM437.08 261.809C438.637 257.352 436.206 249.628 423.969 261.809C411.731 273.99 387 289.5 358.5 293C322.5 292 330.44 291.827 236.038 272.685C141.636 253.543 93.0928 278.379 79.9814 292.155C71.2405 302.596 82.3438 301.688 89.6279 300.963C89.7365 300.955 122.078 298.504 168.5 301C216.5 305.809 260 320.5 275.373 327.065C286.299 331.416 304 346 281.929 364.044C260.951 383.186 218.5 369 212 362.5C207.5 359 202.658 351.214 201.074 357.519C199.5 366.5 214.186 409.724 264.446 416.25C304.655 421.471 330.732 376.37 338.744 353.168C338.755 353.121 341.012 343.129 375.894 329.24C410.857 315.319 431.253 278.485 437.08 261.809ZM343.117 83.4414C304.657 81.7012 293.406 101.461 291.949 111.612C291.95 115.962 298.683 115.344 301.596 113.894C315.988 107.262 354.041 108.238 354.041 155.223C354.041 202.207 289.941 199.452 257.891 192.201C257.783 192.18 200.603 180.889 163.926 179.15C127.5 180 84.5303 207.428 67.7773 222.654C60.4933 230.63 55.1029 242.232 91.8145 224.83C128.526 207.428 212.002 221.929 249.151 231.355C273.189 236.431 330.005 242.666 364.969 227.005C399.932 211.343 405.526 152 402 136C399.796 126 379.5 85.5004 343.117 83.4414Z" fill="#3977F2"/>
</svg>
